<?xml version="1.0" encoding="UTF-8"?>
<!DOCTYPE svg PUBLIC "-//W3C//DTD SVG 1.1//EN" "http://www.w3.org/Graphics/SVG/1.1/DTD/svg11.dtd">
<svg xmlns="http://www.w3.org/2000/svg" version="1.1" width="1000px" height="1000px" style="shape-rendering:geometricPrecision; text-rendering:geometricPrecision; image-rendering:optimizeQuality; fill-rule:evenodd; clip-rule:evenodd" xmlns:xlink="http://www.w3.org/1999/xlink">
<g><path style="opacity:0.427" fill="#7804c5" d="M 459.5,330.5 C 462.426,336.695 466.092,342.362 470.5,347.5C 471.403,350.391 471.736,353.391 471.5,356.5C 471.5,359.5 471.5,362.5 471.5,365.5C 471.5,369.5 471.5,373.5 471.5,377.5C 471.665,380.518 471.498,383.518 471,386.5C 470.148,385.429 469.315,384.429 468.5,383.5C 466.154,380.129 463.821,376.796 461.5,373.5C 459.853,370.527 457.853,367.86 455.5,365.5C 453.984,362.467 451.984,359.8 449.5,357.5C 448.567,354.63 446.9,352.296 444.5,350.5C 442.938,346.608 440.605,343.275 437.5,340.5C 436.241,336.975 434.241,333.975 431.5,331.5C 429.154,328.129 426.821,324.796 424.5,321.5C 422.853,318.527 420.853,315.86 418.5,313.5C 416.975,310.437 414.975,307.77 412.5,305.5C 409.655,300.473 406.321,295.806 402.5,291.5C 400.218,287.223 397.551,283.223 394.5,279.5C 393.396,277.611 392.063,275.945 390.5,274.5C 388.656,270.808 386.323,267.475 383.5,264.5C 371.273,246.259 358.606,228.259 345.5,210.5C 317.841,209.5 290.175,209.167 262.5,209.5C 262.5,209.167 262.5,208.833 262.5,208.5C 262.5,204.833 262.5,201.167 262.5,197.5C 263.684,194.151 266.017,191.985 269.5,191C 299.548,190.032 329.548,190.365 359.5,192C 393.084,238.069 426.417,284.235 459.5,330.5 Z"/></g>
<g><path style="opacity:0.423" fill="#7804c6" d="M 464.5,590.5 C 461.393,590.649 458.393,590.149 455.5,589C 453.789,587.867 453.289,586.367 454,584.5C 499.503,507.141 544.17,429.474 588,351.5C 582,356.833 576,362.167 570,367.5C 569.501,362.511 569.334,357.511 569.5,352.5C 569.5,342.167 569.5,331.833 569.5,321.5C 569.5,312.5 569.5,303.5 569.5,294.5C 569.5,285.833 569.5,277.167 569.5,268.5C 569.5,262.167 569.5,255.833 569.5,249.5C 569.5,242.5 569.5,235.5 569.5,228.5C 569.5,221.833 569.5,215.167 569.5,208.5C 537.167,208.5 504.833,208.5 472.5,208.5C 472.5,204.833 472.5,201.167 472.5,197.5C 473.8,193.704 476.467,191.537 480.5,191C 513.833,190.333 547.167,190.333 580.5,191C 585.449,192.282 588.283,195.449 589,200.5C 589.167,245.837 589.667,291.17 590.5,336.5C 596.088,330.027 601.588,330.027 607,336.5C 608.859,340.955 608.525,345.289 606,349.5C 560.081,428.336 514.414,507.336 469,586.5C 467.629,588.041 466.129,589.375 464.5,590.5 Z"/></g>
<g><path style="opacity:0.04" fill="#9104c6" d="M 262.5,197.5 C 262.5,201.167 262.5,204.833 262.5,208.5C 260.502,301.161 259.836,394.161 260.5,487.5C 260.5,499.5 260.5,511.5 260.5,523.5C 260.5,530.833 260.5,538.167 260.5,545.5C 265.5,545.5 270.5,545.5 275.5,545.5C 279.167,545.5 282.833,545.5 286.5,545.5C 290.167,545.5 293.833,545.5 297.5,545.5C 301.167,545.5 304.833,545.5 308.5,545.5C 312.167,545.5 315.833,545.5 319.5,545.5C 323.833,545.5 328.167,545.5 332.5,545.5C 336.167,545.5 339.833,545.5 343.5,545.5C 348.833,545.5 354.167,545.5 359.5,545.5C 363.5,545.5 367.5,545.5 371.5,545.5C 371.066,551.875 367.733,555.708 361.5,557C 327.167,557.667 292.833,557.667 258.5,557C 254.501,556.332 251.668,554.165 250,550.5C 248.345,437.196 248.012,323.863 249,210.5C 248.773,201.227 253.273,196.893 262.5,197.5 Z"/></g>
<g><path style="opacity:0.041" fill="#9104c6" d="M 472.5,197.5 C 472.5,201.167 472.5,204.833 472.5,208.5C 470.515,224.466 469.848,240.799 470.5,257.5C 470.5,279.833 470.5,302.167 470.5,324.5C 470.5,332.167 470.5,339.833 470.5,347.5C 466.092,342.362 462.426,336.695 459.5,330.5C 459.333,288.832 459.5,247.165 460,205.5C 461.847,199.48 466.014,196.813 472.5,197.5 Z"/></g>
<g><path style="opacity:1" fill="#3a024f" d="M 262.5,209.5 C 290.175,209.167 317.841,209.5 345.5,210.5C 358.606,228.259 371.273,246.259 383.5,264.5C 343.228,335.278 302.728,405.945 262,476.5C 261.168,387.332 261.334,298.332 262.5,209.5 Z"/></g>
<g><path style="opacity:1" fill="#550374" d="M 472.5,208.5 C 472.5,208.833 472.5,209.167 472.5,209.5C 471.341,219.658 471.175,229.992 472,240.5C 477.845,230.139 483.679,219.806 489.5,209.5C 493.5,209.5 497.5,209.5 501.5,209.5C 491.737,226.7 481.737,243.7 471.5,260.5C 471.737,259.209 471.404,258.209 470.5,257.5C 469.848,240.799 470.515,224.466 472.5,208.5 Z"/></g>
<g><path style="opacity:1" fill="#50036c" d="M 472.5,209.5 C 478.167,209.5 483.833,209.5 489.5,209.5C 483.679,219.806 477.845,230.139 472,240.5C 471.175,229.992 471.341,219.658 472.5,209.5 Z"/></g>
<g><path style="opacity:1" fill="#590379" d="M 501.5,209.5 C 505.167,209.5 508.833,209.5 512.5,209.5C 499.071,233.365 485.404,257.032 471.5,280.5C 471.5,273.833 471.5,267.167 471.5,260.5C 481.737,243.7 491.737,226.7 501.5,209.5 Z"/></g>
<g><path style="opacity:1" fill="#5e0380" d="M 512.5,209.5 C 516.5,209.5 520.5,209.5 524.5,209.5C 507.335,240.501 489.669,271.168 471.5,301.5C 471.5,294.5 471.5,287.5 471.5,280.5C 485.404,257.032 499.071,233.365 512.5,209.5 Z"/></g>
<g><path style="opacity:1" fill="#630387" d="M 524.5,209.5 C 528.167,209.5 531.833,209.5 535.5,209.5C 514.345,246.473 493.179,283.473 472,320.5C 471.5,314.175 471.334,307.842 471.5,301.5C 489.669,271.168 507.335,240.501 524.5,209.5 Z"/></g>
<g><path style="opacity:1" fill="#68038d" d="M 535.5,209.5 C 539.5,209.5 543.5,209.5 547.5,209.5C 522.61,253.608 497.443,297.608 472,341.5C 471.827,335.652 471.327,329.985 470.5,324.5C 470.5,302.167 470.5,279.833 470.5,257.5C 471.404,258.209 471.737,259.209 471.5,260.5C 471.5,267.167 471.5,273.833 471.5,280.5C 471.5,287.5 471.5,294.5 471.5,301.5C 471.334,307.842 471.5,314.175 472,320.5C 493.179,283.473 514.345,246.473 535.5,209.5 Z"/></g>
<g><path style="opacity:1" fill="#6c0493" d="M 547.5,209.5 C 550.167,209.5 552.833,209.5 555.5,209.5C 528.255,258.996 500.255,307.996 471.5,356.5C 471.736,353.391 471.403,350.391 470.5,347.5C 470.5,339.833 470.5,332.167 470.5,324.5C 471.327,329.985 471.827,335.652 472,341.5C 497.443,297.608 522.61,253.608 547.5,209.5 Z"/></g>
<g><path style="opacity:1" fill="#6f0397" d="M 555.5,209.5 C 557.5,209.5 559.5,209.5 561.5,209.5C 531.99,261.862 501.99,313.862 471.5,365.5C 471.5,362.5 471.5,359.5 471.5,356.5C 500.255,307.996 528.255,258.996 555.5,209.5 Z"/></g>
<g><path style="opacity:1" fill="#72049a" d="M 561.5,209.5 C 563.857,209.337 566.19,209.503 568.5,210C 536.519,266.142 504.185,321.975 471.5,377.5C 471.5,373.5 471.5,369.5 471.5,365.5C 501.99,313.862 531.99,261.862 561.5,209.5 Z"/></g>
<g><path style="opacity:0.999" fill="#75049f" d="M 472.5,209.5 C 472.5,209.167 472.5,208.833 472.5,208.5C 504.833,208.5 537.167,208.5 569.5,208.5C 569.5,215.167 569.5,221.833 569.5,228.5C 523.672,308.827 477.338,388.827 430.5,468.5C 427.936,465.72 425.603,462.72 423.5,459.5C 424.496,459.586 425.329,459.252 426,458.5C 440.179,433.473 454.345,408.473 468.5,383.5C 469.315,384.429 470.148,385.429 471,386.5C 471.498,383.518 471.665,380.518 471.5,377.5C 504.185,321.975 536.519,266.142 568.5,210C 566.19,209.503 563.857,209.337 561.5,209.5C 559.5,209.5 557.5,209.5 555.5,209.5C 552.833,209.5 550.167,209.5 547.5,209.5C 543.5,209.5 539.5,209.5 535.5,209.5C 531.833,209.5 528.167,209.5 524.5,209.5C 520.5,209.5 516.5,209.5 512.5,209.5C 508.833,209.5 505.167,209.5 501.5,209.5C 497.5,209.5 493.5,209.5 489.5,209.5C 483.833,209.5 478.167,209.5 472.5,209.5 Z"/></g>
<g><path style="opacity:0.999" fill="#7a04a5" d="M 569.5,228.5 C 569.5,235.5 569.5,242.5 569.5,249.5C 527.108,322.607 484.941,395.941 443,469.5C 441.513,472.859 439.346,475.525 436.5,477.5C 434.252,474.672 432.252,471.672 430.5,468.5C 477.338,388.827 523.672,308.827 569.5,228.5 Z"/></g>
<g><path style="opacity:0.999" fill="#7e04ab" d="M 569.5,249.5 C 569.5,255.833 569.5,262.167 569.5,268.5C 527.5,341.167 485.5,413.833 443.5,486.5C 440.815,483.81 438.482,480.81 436.5,477.5C 439.346,475.525 441.513,472.859 443,469.5C 484.941,395.941 527.108,322.607 569.5,249.5 Z"/></g>
<g><path style="opacity:1" fill="#3d0253" d="M 262.5,208.5 C 262.5,208.833 262.5,209.167 262.5,209.5C 261.334,298.332 261.168,387.332 262,476.5C 302.728,405.945 343.228,335.278 383.5,264.5C 386.323,267.475 388.656,270.808 390.5,274.5C 348.002,349.501 305.002,424.168 261.5,498.5C 261.815,494.629 261.482,490.962 260.5,487.5C 259.836,394.161 260.502,301.161 262.5,208.5 Z"/></g>
<g><path style="opacity:0.999" fill="#8204b1" d="M 569.5,268.5 C 569.5,277.167 569.5,285.833 569.5,294.5C 530.167,362.5 490.833,430.5 451.5,498.5C 448.415,494.754 445.749,490.754 443.5,486.5C 485.5,413.833 527.5,341.167 569.5,268.5 Z"/></g>
<g><path style="opacity:1" fill="#3f0256" d="M 390.5,274.5 C 392.063,275.945 393.396,277.611 394.5,279.5C 350.345,356.473 306.178,433.473 262,510.5C 261.501,506.514 261.334,502.514 261.5,498.5C 305.002,424.168 348.002,349.501 390.5,274.5 Z"/></g>
<g><path style="opacity:0.996" fill="#42025a" d="M 394.5,279.5 C 397.551,283.223 400.218,287.223 402.5,291.5C 402.245,294.016 401.411,296.35 400,298.5C 386.6,320.909 373.6,343.576 361,366.5C 360.005,367.066 359.172,367.733 358.5,368.5C 358.5,369.5 358.5,370.5 358.5,371.5C 325.855,426.777 293.688,482.444 262,538.5C 261.826,533.316 261.326,528.316 260.5,523.5C 260.5,511.5 260.5,499.5 260.5,487.5C 261.482,490.962 261.815,494.629 261.5,498.5C 261.334,502.514 261.501,506.514 262,510.5C 306.178,433.473 350.345,356.473 394.5,279.5 Z"/></g>
<g><path style="opacity:1" fill="#470261" d="M 402.5,291.5 C 406.321,295.806 409.655,300.473 412.5,305.5C 399.277,329.607 385.777,353.607 372,377.5C 371.051,379.093 369.885,380.426 368.5,381.5C 365.441,377.772 362.774,373.772 360.5,369.5C 360.158,368.662 359.492,368.328 358.5,368.5C 359.172,367.733 360.005,367.066 361,366.5C 373.6,343.576 386.6,320.909 400,298.5C 401.411,296.35 402.245,294.016 402.5,291.5 Z"/></g>
<g><path style="opacity:0.999" fill="#8705b8" d="M 569.5,294.5 C 569.5,303.5 569.5,312.5 569.5,321.5C 533.274,383.607 497.274,445.94 461.5,508.5C 461.043,509.298 460.376,509.631 459.5,509.5C 456.865,505.857 454.199,502.19 451.5,498.5C 490.833,430.5 530.167,362.5 569.5,294.5 Z"/></g>
<g><path style="opacity:1" fill="#4c0368" d="M 412.5,305.5 C 414.975,307.77 416.975,310.437 418.5,313.5C 405.884,337.392 392.717,361.058 379,384.5C 377.933,386.692 376.433,388.358 374.5,389.5C 372.147,387.14 370.147,384.473 368.5,381.5C 369.885,380.426 371.051,379.093 372,377.5C 385.777,353.607 399.277,329.607 412.5,305.5 Z"/></g>
<g><path style="opacity:1" fill="#50036d" d="M 418.5,313.5 C 420.853,315.86 422.853,318.527 424.5,321.5C 410.607,347.62 395.941,373.286 380.5,398.5C 379.833,397.833 379.167,397.167 378.5,396.5C 377.167,394.167 375.833,391.833 374.5,389.5C 376.433,388.358 377.933,386.692 379,384.5C 392.717,361.058 405.884,337.392 418.5,313.5 Z"/></g>
<g><path style="opacity:0.997" fill="#8c05be" d="M 569.5,321.5 C 569.5,331.833 569.5,342.167 569.5,352.5C 531.522,417.11 494.022,482.11 457,547.5C 456.626,546.584 456.126,545.75 455.5,545C 456.848,542.15 457.181,539.317 456.5,536.5C 458.076,527.561 459.076,518.561 459.5,509.5C 460.376,509.631 461.043,509.298 461.5,508.5C 497.274,445.94 533.274,383.607 569.5,321.5 Z"/></g>
<g><path style="opacity:0.999" fill="#550373" d="M 424.5,321.5 C 426.821,324.796 429.154,328.129 431.5,331.5C 417.092,355.976 402.926,380.643 389,405.5C 388.329,406.252 387.496,406.586 386.5,406.5C 384.147,404.14 382.147,401.473 380.5,398.5C 395.941,373.286 410.607,347.62 424.5,321.5 Z"/></g>
<g><path style="opacity:0.999" fill="#590379" d="M 431.5,331.5 C 434.241,333.975 436.241,336.975 437.5,340.5C 423.092,364.976 408.926,389.643 395,414.5C 394.329,415.252 393.496,415.586 392.5,415.5C 390.255,412.68 388.255,409.68 386.5,406.5C 387.496,406.586 388.329,406.252 389,405.5C 402.926,380.643 417.092,355.976 431.5,331.5 Z"/></g>
<g><path style="opacity:0.429" fill="#7804c5" d="M 769.5,527.5 C 768.178,527.33 767.011,527.663 766,528.5C 763.579,526.303 760.745,524.97 757.5,524.5C 757.5,501.833 757.5,479.167 757.5,456.5C 757.826,452.116 757.492,447.783 756.5,443.5C 755.264,442.754 753.93,442.421 752.5,442.5C 748.207,440.256 743.54,438.923 738.5,438.5C 734.111,436.754 729.444,435.754 724.5,435.5C 723.081,434.549 721.415,434.216 719.5,434.5C 715.382,433.291 711.049,432.624 706.5,432.5C 704.052,431.527 701.385,431.194 698.5,431.5C 694.03,430.514 689.363,430.181 684.5,430.5C 680.702,429.517 676.702,429.183 672.5,429.5C 659.314,428.233 645.98,428.233 632.5,429.5C 625.95,429.454 619.617,430.121 613.5,431.5C 612.022,431.762 610.689,431.429 609.5,430.5C 610.426,426.906 610.759,423.24 610.5,419.5C 612.022,413.953 612.688,408.286 612.5,402.5C 613.468,400.393 613.802,398.059 613.5,395.5C 615.642,384.383 616.808,373.05 617,361.5C 566.14,448.563 515.307,535.563 464.5,622.5C 464.263,618.727 464.763,615.06 466,611.5C 515.333,526.833 564.667,442.167 614,357.5C 615.009,355.975 615.509,354.308 615.5,352.5C 617.727,351.599 618.727,349.933 618.5,347.5C 623.753,339.709 629.586,339.043 636,345.5C 636.333,346.833 636.667,348.167 637,349.5C 635.313,370.189 633.146,390.855 630.5,411.5C 670.941,408.317 710.941,411.151 750.5,420C 758.445,421.815 766.111,424.315 773.5,427.5C 775.703,429.295 776.869,431.629 777,434.5C 777.667,462.5 777.667,490.5 777,518.5C 776.368,523.118 773.868,526.118 769.5,527.5 Z"/></g>
<g><path style="opacity:0.998" fill="#5e0380" d="M 437.5,340.5 C 440.605,343.275 442.938,346.608 444.5,350.5C 430.774,373.607 417.274,396.94 404,420.5C 402.933,422.692 401.433,424.358 399.5,425.5C 397.167,422.167 394.833,418.833 392.5,415.5C 393.496,415.586 394.329,415.252 395,414.5C 408.926,389.643 423.092,364.976 437.5,340.5 Z"/></g>
<g><path style="opacity:0.036" fill="#9104c5" d="M 618.5,347.5 C 618.727,349.933 617.727,351.599 615.5,352.5C 615.509,354.308 615.009,355.975 614,357.5C 564.667,442.167 515.333,526.833 466,611.5C 464.763,615.06 464.263,618.727 464.5,622.5C 463.132,629.989 463.465,637.322 465.5,644.5C 465.549,648.078 466.215,651.411 467.5,654.5C 467.42,657.781 468.087,660.781 469.5,663.5C 470.235,667.805 471.568,671.805 473.5,675.5C 474.37,680.223 476.036,684.556 478.5,688.5C 479.992,692.818 481.992,696.818 484.5,700.5C 485.769,704.054 487.769,707.054 490.5,709.5C 491.786,712.117 493.453,714.45 495.5,716.5C 497.117,719.784 499.45,722.451 502.5,724.5C 504.5,727.167 506.833,729.5 509.5,731.5C 511.549,734.55 514.216,736.883 517.5,738.5C 519.8,740.984 522.467,742.984 525.5,744.5C 527.946,747.231 530.946,749.231 534.5,750.5C 536.849,752.341 539.515,753.674 542.5,754.5C 545.751,756.957 549.418,758.624 553.5,759.5C 557.444,761.964 561.777,763.63 566.5,764.5C 570.895,766.435 575.562,767.769 580.5,768.5C 586.245,770.451 592.245,771.785 598.5,772.5C 614.556,774.848 630.723,776.181 647,776.5C 662.843,775.582 678.676,774.582 694.5,773.5C 717.218,771.456 739.218,766.289 760.5,758C 770.298,753.705 779.298,749.872 787.5,746.5C 787.559,750.548 785.892,753.715 782.5,756C 740.409,778.605 695.409,789.105 647.5,787.5C 605.152,789.065 565.152,780.231 527.5,761C 486.17,735.235 461.67,698.069 454,649.5C 452.879,642.366 452.046,635.199 451.5,628C 451.493,624.742 451.993,621.575 453,618.5C 504.536,528.59 556.702,439.09 609.5,350C 612.418,348.85 615.418,348.017 618.5,347.5 Z"/></g>
<g><path style="opacity:0.578" fill="#9104c4" d="M 464.5,590.5 C 460.497,601.94 452.83,605.106 441.5,600C 439.179,596.534 438.179,592.7 438.5,588.5C 441.749,563.509 444.583,538.509 447,513.5C 424.304,481.319 401.47,449.319 378.5,417.5C 378.5,410.5 378.5,403.5 378.5,396.5C 379.167,397.167 379.833,397.833 380.5,398.5C 382.147,401.473 384.147,404.14 386.5,406.5C 388.255,409.68 390.255,412.68 392.5,415.5C 394.833,418.833 397.167,422.167 399.5,425.5C 401.147,428.473 403.147,431.14 405.5,433.5C 407.147,436.473 409.147,439.14 411.5,441.5C 412.759,445.025 414.759,448.025 417.5,450.5C 419.5,453.5 421.5,456.5 423.5,459.5C 425.603,462.72 427.936,465.72 430.5,468.5C 432.252,471.672 434.252,474.672 436.5,477.5C 438.482,480.81 440.815,483.81 443.5,486.5C 445.749,490.754 448.415,494.754 451.5,498.5C 454.199,502.19 456.865,505.857 459.5,509.5C 459.076,518.561 458.076,527.561 456.5,536.5C 457.181,539.317 456.848,542.15 455.5,545C 456.126,545.75 456.626,546.584 457,547.5C 494.022,482.11 531.522,417.11 569.5,352.5C 569.334,357.511 569.501,362.511 570,367.5C 576,362.167 582,356.833 588,351.5C 544.17,429.474 499.503,507.141 454,584.5C 453.289,586.367 453.789,587.867 455.5,589C 458.393,590.149 461.393,590.649 464.5,590.5 Z"/></g>
<g><path style="opacity:0.999" fill="#630387" d="M 444.5,350.5 C 446.9,352.296 448.567,354.63 449.5,357.5C 449.245,360.016 448.411,362.35 447,364.5C 433.6,386.909 420.6,409.576 408,432.5C 407.329,433.252 406.496,433.586 405.5,433.5C 403.147,431.14 401.147,428.473 399.5,425.5C 401.433,424.358 402.933,422.692 404,420.5C 417.274,396.94 430.774,373.607 444.5,350.5 Z"/></g>
<g><path style="opacity:0.998" fill="#67038c" d="M 449.5,357.5 C 451.984,359.8 453.984,362.467 455.5,365.5C 441.323,391.196 426.657,416.529 411.5,441.5C 409.147,439.14 407.147,436.473 405.5,433.5C 406.496,433.586 407.329,433.252 408,432.5C 420.6,409.576 433.6,386.909 447,364.5C 448.411,362.35 449.245,360.016 449.5,357.5 Z"/></g>
<g><path style="opacity:0.996" fill="#8704b8" d="M 613.5,395.5 C 613.663,393.143 613.497,390.81 613,388.5C 564.059,474.059 514.892,559.393 465.5,644.5C 463.465,637.322 463.132,629.989 464.5,622.5C 515.307,535.563 566.14,448.563 617,361.5C 616.808,373.05 615.642,384.383 613.5,395.5 Z"/></g>
<g><path style="opacity:0.998" fill="#6c0492" d="M 455.5,365.5 C 457.853,367.86 459.853,370.527 461.5,373.5C 447.083,399.337 432.416,425.004 417.5,450.5C 414.759,448.025 412.759,445.025 411.5,441.5C 426.657,416.529 441.323,391.196 455.5,365.5 Z"/></g>
<g><path style="opacity:0.434" fill="#7804c5" d="M 360.5,369.5 C 362.774,373.772 365.441,377.772 368.5,381.5C 370.147,384.473 372.147,387.14 374.5,389.5C 375.833,391.833 377.167,394.167 378.5,396.5C 378.5,403.5 378.5,410.5 378.5,417.5C 378.667,458.168 378.5,498.835 378,539.5C 376.615,542.386 374.449,544.386 371.5,545.5C 367.5,545.5 363.5,545.5 359.5,545.5C 359.5,530.5 359.5,515.5 359.5,500.5C 359.5,486.167 359.5,471.833 359.5,457.5C 359.5,440.167 359.5,422.833 359.5,405.5C 359.172,393.322 359.505,381.322 360.5,369.5 Z"/></g>
<g><path style="opacity:0.996" fill="#470261" d="M 358.5,371.5 C 358.666,381.506 358.5,391.506 358,401.5C 330.235,449.364 302.735,497.364 275.5,545.5C 270.5,545.5 265.5,545.5 260.5,545.5C 260.5,538.167 260.5,530.833 260.5,523.5C 261.326,528.316 261.826,533.316 262,538.5C 293.688,482.444 325.855,426.777 358.5,371.5 Z"/></g>
<g><path style="opacity:0.998" fill="#710499" d="M 461.5,373.5 C 463.821,376.796 466.154,380.129 468.5,383.5C 454.345,408.473 440.179,433.473 426,458.5C 425.329,459.252 424.496,459.586 423.5,459.5C 421.5,456.5 419.5,453.5 417.5,450.5C 432.416,425.004 447.083,399.337 461.5,373.5 Z"/></g>
<g><path style="opacity:0.999" fill="#8404b3" d="M 613.5,395.5 C 613.802,398.059 613.468,400.393 612.5,402.5C 563.867,485.695 515.533,569.695 467.5,654.5C 466.215,651.411 465.549,648.078 465.5,644.5C 514.892,559.393 564.059,474.059 613,388.5C 613.497,390.81 613.663,393.143 613.5,395.5 Z"/></g>
<g><path style="opacity:1" fill="#4c0268" d="M 358.5,368.5 C 359.492,368.328 360.158,368.662 360.5,369.5C 359.505,381.322 359.172,393.322 359.5,405.5C 358.513,410.305 358.179,415.305 358.5,420.5C 334.262,461.968 310.262,503.635 286.5,545.5C 282.833,545.5 279.167,545.5 275.5,545.5C 302.735,497.364 330.235,449.364 358,401.5C 358.5,391.506 358.666,381.506 358.5,371.5C 358.5,370.5 358.5,369.5 358.5,368.5 Z"/></g>
<g><path style="opacity:0.999" fill="#8204b0" d="M 612.5,402.5 C 612.688,408.286 612.022,413.953 610.5,419.5C 563.5,500.833 516.5,582.167 469.5,663.5C 468.087,660.781 467.42,657.781 467.5,654.5C 515.533,569.695 563.867,485.695 612.5,402.5 Z"/></g>
<g><path style="opacity:0.999" fill="#7e04ab" d="M 610.5,419.5 C 610.759,423.24 610.426,426.906 609.5,430.5C 610.689,431.429 612.022,431.762 613.5,431.5C 567.336,513.167 520.669,594.501 473.5,675.5C 471.568,671.805 470.235,667.805 469.5,663.5C 516.5,582.167 563.5,500.833 610.5,419.5 Z"/></g>
<g><path style="opacity:1" fill="#50036d" d="M 358.5,420.5 C 358.666,426.509 358.499,432.509 358,438.5C 337.577,474.073 317.411,509.739 297.5,545.5C 293.833,545.5 290.167,545.5 286.5,545.5C 310.262,503.635 334.262,461.968 358.5,420.5 Z"/></g>
<g><path style="opacity:0.999" fill="#75049f" d="M 672.5,429.5 C 672.167,429.5 671.833,429.5 671.5,429.5C 668.167,429.5 664.833,429.5 661.5,429.5C 657.833,429.5 654.167,429.5 650.5,429.5C 646.233,429.203 642.066,429.536 638,430.5C 587,519.167 536,607.833 485,696.5C 484.51,697.793 484.343,699.127 484.5,700.5C 481.992,696.818 479.992,692.818 478.5,688.5C 527.695,602.612 577.029,516.779 626.5,431C 628.708,430.809 630.708,430.309 632.5,429.5C 645.98,428.233 659.314,428.233 672.5,429.5 Z"/></g>
<g><path style="opacity:0.999" fill="#710499" d="M 650.5,429.5 C 632.444,461.941 614.11,494.274 595.5,526.5C 595.624,527.107 595.957,527.44 596.5,527.5C 581.519,537.685 571.685,551.685 567,569.5C 566.257,575.058 565.091,580.392 563.5,585.5C 563.649,584.448 563.483,583.448 563,582.5C 538.821,624.861 514.655,667.194 490.5,709.5C 487.769,707.054 485.769,704.054 484.5,700.5C 484.343,699.127 484.51,697.793 485,696.5C 536,607.833 587,519.167 638,430.5C 642.066,429.536 646.233,429.203 650.5,429.5 Z"/></g>
<g><path style="opacity:1" fill="#6c0492" d="M 650.5,429.5 C 654.167,429.5 657.833,429.5 661.5,429.5C 644.756,459.428 627.756,489.261 610.5,519C 611.094,519.464 611.761,519.631 612.5,519.5C 607.232,522.134 601.899,524.801 596.5,527.5C 595.957,527.44 595.624,527.107 595.5,526.5C 614.11,494.274 632.444,461.941 650.5,429.5 Z"/></g>
<g><path style="opacity:1" fill="#67038c" d="M 661.5,429.5 C 664.833,429.5 668.167,429.5 671.5,429.5C 654.833,458.5 638.167,487.5 621.5,516.5C 618.67,517.735 615.67,518.735 612.5,519.5C 611.761,519.631 611.094,519.464 610.5,519C 627.756,489.261 644.756,459.428 661.5,429.5 Z"/></g>
<g><path style="opacity:0.999" fill="#7a04a5" d="M 632.5,429.5 C 630.708,430.309 628.708,430.809 626.5,431C 577.029,516.779 527.695,602.612 478.5,688.5C 476.036,684.556 474.37,680.223 473.5,675.5C 520.669,594.501 567.336,513.167 613.5,431.5C 619.617,430.121 625.95,429.454 632.5,429.5 Z"/></g>
<g><path style="opacity:1" fill="#620386" d="M 671.5,429.5 C 671.833,429.5 672.167,429.5 672.5,429.5C 676.702,429.183 680.702,429.517 684.5,430.5C 683.178,430.33 682.011,430.663 681,431.5C 665.374,458.585 649.874,485.752 634.5,513C 635.448,513.483 636.448,513.649 637.5,513.5C 632.383,514.989 627.049,515.989 621.5,516.5C 638.167,487.5 654.833,458.5 671.5,429.5 Z"/></g>
<g><path style="opacity:1" fill="#5e0380" d="M 684.5,430.5 C 689.363,430.181 694.03,430.514 698.5,431.5C 696.533,431.261 694.699,431.594 693,432.5C 677.833,458.833 662.667,485.167 647.5,511.5C 651.107,512.489 654.774,512.823 658.5,512.5C 661.385,512.194 664.052,512.527 666.5,513.5C 659.833,513.5 653.167,513.5 646.5,513.5C 643.5,513.5 640.5,513.5 637.5,513.5C 636.448,513.649 635.448,513.483 634.5,513C 649.874,485.752 665.374,458.585 681,431.5C 682.011,430.663 683.178,430.33 684.5,430.5 Z"/></g>
<g><path style="opacity:1" fill="#590379" d="M 698.5,431.5 C 701.385,431.194 704.052,431.527 706.5,432.5C 705.325,432.281 704.325,432.614 703.5,433.5C 688.235,459.698 673.235,486.031 658.5,512.5C 654.774,512.823 651.107,512.489 647.5,511.5C 662.667,485.167 677.833,458.833 693,432.5C 694.699,431.594 696.533,431.261 698.5,431.5 Z"/></g>
<g><path style="opacity:1" fill="#550373" d="M 706.5,432.5 C 711.049,432.624 715.382,433.291 719.5,434.5C 717.533,434.261 715.699,434.594 714,435.5C 699.3,460.705 684.8,486.038 670.5,511.5C 672.969,512.168 675.302,512.835 677.5,513.5C 673.833,513.5 670.167,513.5 666.5,513.5C 664.052,512.527 661.385,512.194 658.5,512.5C 673.235,486.031 688.235,459.698 703.5,433.5C 704.325,432.614 705.325,432.281 706.5,432.5 Z"/></g>
<g><path style="opacity:0.998" fill="#50036d" d="M 719.5,434.5 C 721.415,434.216 723.081,434.549 724.5,435.5C 710.061,461.112 695.394,486.612 680.5,512C 681.737,512.232 682.737,512.732 683.5,513.5C 681.5,513.5 679.5,513.5 677.5,513.5C 675.302,512.835 672.969,512.168 670.5,511.5C 684.8,486.038 699.3,460.705 714,435.5C 715.699,434.594 717.533,434.261 719.5,434.5 Z"/></g>
<g><path style="opacity:1" fill="#4c0367" d="M 724.5,435.5 C 729.444,435.754 734.111,436.754 738.5,438.5C 723.256,462.795 708.589,487.628 694.5,513C 695.737,513.232 696.737,513.732 697.5,514.5C 692.786,514.647 688.119,514.314 683.5,513.5C 682.737,512.732 681.737,512.232 680.5,512C 695.394,486.612 710.061,461.112 724.5,435.5 Z"/></g>
<g><path style="opacity:1" fill="#550373" d="M 359.5,405.5 C 359.5,422.833 359.5,440.167 359.5,457.5C 358.662,457.842 358.328,458.508 358.5,459.5C 341.343,487.804 324.677,516.47 308.5,545.5C 304.833,545.5 301.167,545.5 297.5,545.5C 317.411,509.739 337.577,474.073 358,438.5C 358.499,432.509 358.666,426.509 358.5,420.5C 358.179,415.305 358.513,410.305 359.5,405.5 Z"/></g>
<g><path style="opacity:0.999" fill="#470260" d="M 738.5,438.5 C 743.54,438.923 748.207,440.256 752.5,442.5C 751.504,442.414 750.671,442.748 750,443.5C 736.5,467.167 723,490.833 709.5,514.5C 710.602,515.176 711.602,515.842 712.5,516.5C 707.42,516.122 702.42,515.455 697.5,514.5C 696.737,513.732 695.737,513.232 694.5,513C 708.589,487.628 723.256,462.795 738.5,438.5 Z"/></g>
<g><path style="opacity:0.999" fill="#42025a" d="M 752.5,442.5 C 753.93,442.421 755.264,442.754 756.5,443.5C 757.492,447.783 757.826,452.116 757.5,456.5C 745.355,476.109 733.689,496.109 722.5,516.5C 722.863,517.183 723.196,517.85 723.5,518.5C 719.86,517.727 716.193,517.06 712.5,516.5C 711.602,515.842 710.602,515.176 709.5,514.5C 723,490.833 736.5,467.167 750,443.5C 750.671,442.748 751.504,442.414 752.5,442.5 Z"/></g>
<g><path style="opacity:1" fill="#590379" d="M 358.5,459.5 C 358.666,465.842 358.5,472.175 358,478.5C 345.155,500.861 332.322,523.194 319.5,545.5C 315.833,545.5 312.167,545.5 308.5,545.5C 324.677,516.47 341.343,487.804 358.5,459.5 Z"/></g>
<g><path style="opacity:0.999" fill="#3d0253" d="M 757.5,456.5 C 757.5,479.167 757.5,501.833 757.5,524.5C 757.657,525.873 757.49,527.207 757,528.5C 746.181,524.061 735.014,520.728 723.5,518.5C 723.196,517.85 722.863,517.183 722.5,516.5C 733.689,496.109 745.355,476.109 757.5,456.5 Z"/></g>
<g><path style="opacity:1" fill="#5e0380" d="M 359.5,457.5 C 359.5,471.833 359.5,486.167 359.5,500.5C 359.167,500.5 358.833,500.5 358.5,500.5C 349.079,515.002 340.412,530.002 332.5,545.5C 328.167,545.5 323.833,545.5 319.5,545.5C 332.322,523.194 345.155,500.861 358,478.5C 358.5,472.175 358.666,465.842 358.5,459.5C 358.328,458.508 358.662,457.842 359.5,457.5 Z"/></g>
<g><path style="opacity:1" fill="#620386" d="M 358.5,500.5 C 358.666,506.842 358.5,513.175 358,519.5C 352.889,528.06 348.056,536.726 343.5,545.5C 339.833,545.5 336.167,545.5 332.5,545.5C 340.412,530.002 349.079,515.002 358.5,500.5 Z"/></g>
<g><path style="opacity:0.038" fill="#9104c5" d="M 646.5,513.5 C 653.167,513.5 659.833,513.5 666.5,513.5C 670.167,513.5 673.833,513.5 677.5,513.5C 679.5,513.5 681.5,513.5 683.5,513.5C 688.119,514.314 692.786,514.647 697.5,514.5C 702.42,515.455 707.42,516.122 712.5,516.5C 716.193,517.06 719.86,517.727 723.5,518.5C 735.014,520.728 746.181,524.061 757,528.5C 757.49,527.207 757.657,525.873 757.5,524.5C 760.745,524.97 763.579,526.303 766,528.5C 767.011,527.663 768.178,527.33 769.5,527.5C 769.106,535.393 764.94,539.393 757,539.5C 746.786,536.874 736.619,534.04 726.5,531C 697.713,525.456 668.713,523.79 639.5,526C 622.087,527.881 606.753,534.381 593.5,545.5C 597.085,537.33 602.751,530.83 610.5,526C 621.781,519.358 633.781,515.192 646.5,513.5 Z"/></g>
<g><path style="opacity:0.43" fill="#7804c5" d="M 637.5,513.5 C 640.5,513.5 643.5,513.5 646.5,513.5C 633.781,515.192 621.781,519.358 610.5,526C 602.751,530.83 597.085,537.33 593.5,545.5C 585.381,561.421 581.714,578.421 582.5,596.5C 580.144,648.642 604.977,674.309 657,673.5C 665.564,673.46 674.064,672.793 682.5,671.5C 683.117,671.611 683.617,671.944 684,672.5C 687.085,671.568 690.252,670.901 693.5,670.5C 693.833,670.5 694.167,670.5 694.5,670.5C 694.5,675.5 694.5,680.5 694.5,685.5C 682.969,688.255 671.303,690.255 659.5,691.5C 647.48,691.672 635.48,691.338 623.5,690.5C 619.245,689.598 614.911,688.598 610.5,687.5C 606.576,685.853 602.576,684.186 598.5,682.5C 595.011,679.92 591.344,677.587 587.5,675.5C 585.5,672.833 583.167,670.5 580.5,668.5C 578.5,665.5 576.5,662.5 574.5,659.5C 572.801,656.101 571.134,652.768 569.5,649.5C 568.159,644.48 566.825,639.48 565.5,634.5C 564.996,629.798 564.329,625.131 563.5,620.5C 563.5,618.167 563.5,615.833 563.5,613.5C 563.5,604.167 563.5,594.833 563.5,585.5C 565.091,580.392 566.257,575.058 567,569.5C 571.685,551.685 581.519,537.685 596.5,527.5C 601.899,524.801 607.232,522.134 612.5,519.5C 615.67,518.735 618.67,517.735 621.5,516.5C 627.049,515.989 632.383,514.989 637.5,513.5 Z"/></g>
<g><path style="opacity:1" fill="#68038d" d="M 358.5,500.5 C 358.833,500.5 359.167,500.5 359.5,500.5C 359.5,515.5 359.5,530.5 359.5,545.5C 354.167,545.5 348.833,545.5 343.5,545.5C 348.056,536.726 352.889,528.06 358,519.5C 358.5,513.175 358.666,506.842 358.5,500.5 Z"/></g>
<g><path style="opacity:0.429" fill="#7804c5" d="M 787.5,746.5 C 779.298,749.872 770.298,753.705 760.5,758C 739.218,766.289 717.218,771.456 694.5,773.5C 722.96,768.568 749.96,759.235 775.5,745.5C 776.499,689.002 776.832,632.336 776.5,575.5C 737.167,575.5 697.833,575.5 658.5,575.5C 648.5,575.5 638.5,575.5 628.5,575.5C 628.5,572.833 628.5,570.167 628.5,567.5C 628.5,567.167 628.5,566.833 628.5,566.5C 629.625,565.652 629.625,564.652 628.5,563.5C 629.977,561.193 631.977,559.36 634.5,558C 685.833,557.333 737.167,557.333 788.5,558C 793.188,559.362 795.688,562.529 796,567.5C 796.667,623.5 796.667,679.5 796,735.5C 795.209,740.786 792.376,744.453 787.5,746.5 Z"/></g>
<g><path style="opacity:0.041" fill="#9104c6" d="M 628.5,563.5 C 629.625,564.652 629.625,565.652 628.5,566.5C 627.167,566.833 627.167,567.167 628.5,567.5C 628.5,570.167 628.5,572.833 628.5,575.5C 627.506,584.652 627.173,593.985 627.5,603.5C 627.5,611.833 627.5,620.167 627.5,628.5C 627.5,631.167 627.5,633.833 627.5,636.5C 636.833,636.5 646.167,636.5 655.5,636.5C 668.167,636.5 680.833,636.5 693.5,636.5C 693.5,647.833 693.5,659.167 693.5,670.5C 690.252,670.901 687.085,671.568 684,672.5C 683.617,671.944 683.117,671.611 682.5,671.5C 682.5,663.833 682.5,656.167 682.5,648.5C 663.497,648.667 644.497,648.5 625.5,648C 619.667,647.5 616.5,644.333 616,638.5C 615.333,616.833 615.333,595.167 616,573.5C 617.536,566.971 621.703,563.638 628.5,563.5 Z"/></g>
<g><path style="opacity:1" fill="#50036d" d="M 628.5,575.5 C 638.5,575.5 648.5,575.5 658.5,575.5C 658.5,576.167 658.167,576.5 657.5,576.5C 652.821,576.334 648.155,576.501 643.5,577C 638.267,585.98 632.933,594.813 627.5,603.5C 627.173,593.985 627.506,584.652 628.5,575.5 Z"/></g>
<g><path style="opacity:1" fill="#4b0367" d="M 657.5,576.5 C 648.002,594.168 638.002,611.501 627.5,628.5C 627.5,620.167 627.5,611.833 627.5,603.5C 632.933,594.813 638.267,585.98 643.5,577C 648.155,576.501 652.821,576.334 657.5,576.5 Z"/></g>
<g><path style="opacity:0.998" fill="#46025f" d="M 658.5,575.5 C 697.833,575.5 737.167,575.5 776.5,575.5C 776.832,632.336 776.499,689.002 775.5,745.5C 775.5,689.167 775.5,632.833 775.5,576.5C 748.5,576.5 721.5,576.5 694.5,576.5C 686.804,576.169 679.138,576.503 671.5,577.5C 660.753,596.664 649.753,615.664 638.5,634.5C 644.319,635.167 649.986,635.833 655.5,636.5C 646.167,636.5 636.833,636.5 627.5,636.5C 627.5,633.833 627.5,631.167 627.5,628.5C 638.002,611.501 648.002,594.168 657.5,576.5C 658.167,576.5 658.5,576.167 658.5,575.5 Z"/></g>
<g><path style="opacity:1" fill="#420259" d="M 694.5,576.5 C 683.512,595.806 672.512,615.139 661.5,634.5C 672.48,635.499 683.48,635.832 694.5,635.5C 694.5,647.167 694.5,658.833 694.5,670.5C 694.167,670.5 693.833,670.5 693.5,670.5C 693.5,659.167 693.5,647.833 693.5,636.5C 680.833,636.5 668.167,636.5 655.5,636.5C 649.986,635.833 644.319,635.167 638.5,634.5C 649.753,615.664 660.753,596.664 671.5,577.5C 679.138,576.503 686.804,576.169 694.5,576.5 Z"/></g>
<g><path style="opacity:1" fill="#3a024f" d="M 694.5,576.5 C 721.5,576.5 748.5,576.5 775.5,576.5C 775.5,632.833 775.5,689.167 775.5,745.5C 749.96,759.235 722.96,768.568 694.5,773.5C 678.676,774.582 662.843,775.582 647,776.5C 630.723,776.181 614.556,774.848 598.5,772.5C 597.737,771.732 596.737,771.232 595.5,771C 610.626,745.249 625.626,719.415 640.5,693.5C 646.988,692.833 653.321,692.167 659.5,691.5C 671.303,690.255 682.969,688.255 694.5,685.5C 694.5,680.5 694.5,675.5 694.5,670.5C 694.5,658.833 694.5,647.167 694.5,635.5C 683.48,635.832 672.48,635.499 661.5,634.5C 672.512,615.139 683.512,595.806 694.5,576.5 Z"/></g>
<g><path style="opacity:0.999" fill="#6c0393" d="M 563.5,585.5 C 563.5,594.833 563.5,604.167 563.5,613.5C 562.674,608.684 562.174,603.684 562,598.5C 540.253,636.996 518.253,675.33 496,713.5C 495.517,714.448 495.351,715.448 495.5,716.5C 493.453,714.45 491.786,712.117 490.5,709.5C 514.655,667.194 538.821,624.861 563,582.5C 563.483,583.448 563.649,584.448 563.5,585.5 Z"/></g>
<g><path style="opacity:0.999" fill="#68038d" d="M 563.5,613.5 C 563.5,615.833 563.5,618.167 563.5,620.5C 562.504,620.414 561.671,620.748 561,621.5C 541.476,655.888 521.976,690.221 502.5,724.5C 499.45,722.451 497.117,719.784 495.5,716.5C 495.351,715.448 495.517,714.448 496,713.5C 518.253,675.33 540.253,636.996 562,598.5C 562.174,603.684 562.674,608.684 563.5,613.5 Z"/></g>
<g><path style="opacity:0.998" fill="#620386" d="M 563.5,620.5 C 564.329,625.131 564.996,629.798 565.5,634.5C 546.079,666.335 527.412,698.668 509.5,731.5C 506.833,729.5 504.5,727.167 502.5,724.5C 521.976,690.221 541.476,655.888 561,621.5C 561.671,620.748 562.504,620.414 563.5,620.5 Z"/></g>
<g><path style="opacity:1" fill="#5e0380" d="M 565.5,634.5 C 566.825,639.48 568.159,644.48 569.5,649.5C 551.425,678.639 534.091,708.305 517.5,738.5C 514.216,736.883 511.549,734.55 509.5,731.5C 527.412,698.668 546.079,666.335 565.5,634.5 Z"/></g>
<g><path style="opacity:0.999" fill="#590379" d="M 569.5,649.5 C 571.134,652.768 572.801,656.101 574.5,659.5C 557.775,687.57 541.442,715.903 525.5,744.5C 522.467,742.984 519.8,740.984 517.5,738.5C 534.091,708.305 551.425,678.639 569.5,649.5 Z"/></g>
<g><path style="opacity:0.998" fill="#550373" d="M 574.5,659.5 C 576.5,662.5 578.5,665.5 580.5,668.5C 566.027,693.437 551.527,718.437 537,743.5C 535.589,745.65 534.755,747.984 534.5,750.5C 530.946,749.231 527.946,747.231 525.5,744.5C 541.442,715.903 557.775,687.57 574.5,659.5 Z"/></g>
<g><path style="opacity:0.999" fill="#50036d" d="M 580.5,668.5 C 583.167,670.5 585.5,672.833 587.5,675.5C 572.774,699.939 558.274,724.606 544,749.5C 542.991,751.025 542.491,752.692 542.5,754.5C 539.515,753.674 536.849,752.341 534.5,750.5C 534.755,747.984 535.589,745.65 537,743.5C 551.527,718.437 566.027,693.437 580.5,668.5 Z"/></g>
<g><path style="opacity:0.999" fill="#4c0367" d="M 587.5,675.5 C 591.344,677.587 595.011,679.92 598.5,682.5C 596.567,683.642 595.067,685.308 594,687.5C 580.223,711.393 566.723,735.393 553.5,759.5C 549.418,758.624 545.751,756.957 542.5,754.5C 542.491,752.692 542.991,751.025 544,749.5C 558.274,724.606 572.774,699.939 587.5,675.5 Z"/></g>
<g><path style="opacity:1" fill="#470260" d="M 598.5,682.5 C 602.576,684.186 606.576,685.853 610.5,687.5C 609.325,687.281 608.325,687.614 607.5,688.5C 593.546,713.578 579.212,738.412 564.5,763C 565.416,763.278 566.082,763.778 566.5,764.5C 561.777,763.63 557.444,761.964 553.5,759.5C 566.723,735.393 580.223,711.393 594,687.5C 595.067,685.308 596.567,683.642 598.5,682.5 Z"/></g>
<g><path style="opacity:0.999" fill="#42025a" d="M 610.5,687.5 C 614.911,688.598 619.245,689.598 623.5,690.5C 607.896,715.526 592.896,741.026 578.5,767C 579.416,767.278 580.082,767.778 580.5,768.5C 575.562,767.769 570.895,766.435 566.5,764.5C 566.082,763.778 565.416,763.278 564.5,763C 579.212,738.412 593.546,713.578 607.5,688.5C 608.325,687.614 609.325,687.281 610.5,687.5 Z"/></g>
<g><path style="opacity:1" fill="#3e0254" d="M 623.5,690.5 C 635.48,691.338 647.48,691.672 659.5,691.5C 653.321,692.167 646.988,692.833 640.5,693.5C 625.626,719.415 610.626,745.249 595.5,771C 596.737,771.232 597.737,771.732 598.5,772.5C 592.245,771.785 586.245,770.451 580.5,768.5C 580.082,767.778 579.416,767.278 578.5,767C 592.896,741.026 607.896,715.526 623.5,690.5 Z"/></g>
</svg>
